<?xml version="1.0" encoding="utf-8"?>
<!-- Generator: Adobe Illustrator 16.0.0, SVG Export Plug-In . SVG Version: 6.00 Build 0)  -->
<!DOCTYPE svg PUBLIC "-//W3C//DTD SVG 1.1//EN" "http://www.w3.org/Graphics/SVG/1.1/DTD/svg11.dtd">
<svg version="1.1" xmlns="http://www.w3.org/2000/svg" xmlns:xlink="http://www.w3.org/1999/xlink" x="0px" y="0px"
	 width="800.078px" height="825.882px" viewBox="0 0 800.078 825.882" enable-background="new 0 0 800.078 825.882"
	 xml:space="preserve">
<g id="Background">
</g>
<g id="Monitor">
	<polyline opacity="0.3" points="628.288,791.716 633.112,825.882 659.204,825.882 656.758,805.319 	"/>
	<polyline opacity="0.3" points="512.292,649.228 500.156,649.228 500.156,763.565 514.746,768.466 514.746,649.228 	"/>
	<g opacity="0.3">
		<path d="M14,604.228c0,24.853,20.147,45,45,45h696.078c24.853,0,45-20.147,45-45V57.002c0-24.853-20.147-45-45-45H59
			c-24.853,0-45,20.147-45,45V604.228z"/>
	</g>
	<g>
		<path fill="#2980BA" d="M0,522.216c0,13.807,11.193,25,25,25h736.078c13.807,0,25-11.193,25-25V25c0-13.807-11.193-25-25-25H25
			C11.193,0,0,11.193,0,25V522.216z"/>
		<rect y="273.608" fill="#2980BA" width="786.078" height="273.608"/>
	</g>
	<rect x="33.242" y="30.002" fill="#FFFFFF" width="720" height="489.214"/>
	<g>
		<path fill="#4096D2" d="M0,602.226c0,19.33,15.67,35,35,35h716.078c19.33,0,35-15.67,35-35v-20.01c0-19.33-15.67-35-35-35H35
			c-19.33,0-35,15.67-35,35V602.226z"/>
		<rect y="547.216" fill="#3B97D3" width="786.078" height="45.005"/>
	</g>
	<circle fill="#2980BA" cx="393.039" cy="592.221" r="26.944"/>
	<g>
		<rect x="286.241" y="637.226" fill="#2980BA" width="214" height="121.148"/>
		<rect x="286.241" y="637.226" fill="#0573B7" width="214" height="48.459"/>
	</g>
	<polyline fill="#3DA6DD" points="286.241,758.374 150.246,789.216 145.58,805.216 393.241,805.216 393.241,758.374 	"/>
	<polyline fill="#3DA6DD" points="393.241,758.374 393.241,805.216 640.913,805.216 636.236,789.216 500.241,758.374 	"/>
	<polyline fill="#0378AD" points="145.58,805.216 140.913,825.882 645.58,825.882 640.913,805.216 	"/>
</g>
<g id="Goggles">
	<g id="Glasses">
		<path opacity="0.1" fill="#010101" d="M617.981,705.388c-0.003-0.014-0.003-0.028-0.007-0.043
			c-0.007-0.064-0.016-0.127-0.023-0.186c-0.003-0.017-0.005-0.032-0.007-0.047c-0.014-0.064-0.021-0.124-0.034-0.184
			c-0.003-0.003-0.003-0.008-0.002-0.012c-0.013-0.061-0.027-0.116-0.042-0.167c-0.002-0.014-0.008-0.025-0.009-0.036
			c-0.012-0.037-0.023-0.071-0.036-0.103c-0.003-0.014-0.009-0.025-0.015-0.038c-0.012-0.027-0.022-0.052-0.037-0.074
			c-0.003-0.01-0.008-0.021-0.015-0.031c-0.018-0.027-0.035-0.055-0.055-0.075c-1.056-1.098-5.246-1.84-5.246-1.84
			c-0.093-0.019-0.194-0.036-0.298-0.061c-6.578-1.283-31.873-8.003-65.38-8.587c-29.242-0.511-39.08,0.211-58.853,0.117
			c-0.007,0-0.014,0-0.027,0c-0.709-0.003-1.436-0.01-2.171-0.014c-0.38-0.004-0.761-0.006-1.146-0.009
			c-0.76-0.009-1.539-0.016-2.334-0.024c-0.791-0.01-1.604-0.021-2.433-0.032c-0.829-0.015-1.675-0.026-2.541-0.042
			c-27.725-0.484-35.426-1.828-69.462-2.423c-26.851-0.467-48.569,3.185-59.542,5.197c-2.936,0.536-5.105,0.961-6.396,1.153
			c0,0-4.217,0.596-5.31,1.656c-0.002,0.002-0.004,0.005-0.007,0.008c-0.017,0.018-0.033,0.038-0.05,0.064
			c-0.008,0.011-0.014,0.023-0.021,0.035c-0.011,0.021-0.021,0.041-0.035,0.066c-0.006,0.016-0.01,0.028-0.018,0.047
			c-0.012,0.024-0.022,0.055-0.03,0.084c-0.007,0.018-0.013,0.031-0.019,0.053c-0.016,0.046-0.031,0.098-0.044,0.153
			c-0.004,0.016-0.007,0.035-0.012,0.052c-0.011,0.044-0.02,0.09-0.03,0.137c-0.005,0.026-0.009,0.051-0.014,0.077
			c-0.011,0.046-0.018,0.094-0.026,0.146c-0.001,0.023-0.009,0.05-0.011,0.078c-0.011,0.063-0.02,0.134-0.029,0.204
			c-0.001,0.012-0.004,0.023-0.004,0.036c-0.014,0.091-0.023,0.188-0.033,0.288c0.001,0.002,0.001,0.006-0.004,0.011
			c-0.007,0.097-0.018,0.2-0.026,0.306c0,0.007-0.001,0.013,0,0.021c-0.381,4.669,0.319,16.949,1.182,26.688
			c0.015,0.165,0.028,0.335,0.044,0.511c0.107,1.492,0.183,2.332,0.183,2.332s0.012,0.001,0.037,0.004
			c1.021,10.555,3.676,33.527,8.248,45.689c-2.468,2.566-3.933,4.152-3.933,4.152c-6.506,6.731,3.536,14.476,15.855,8.898
			c8.287,4.189,20.393,6.01,36.146,5.6c23.25-0.606,35.397-2.191,48.53-11.973c7.973-5.937,16.938-26.934,21.794-37.873
			c3.193-0.225,6.39-0.447,9.574-0.666c4.919,0.504,9.904,1.021,14.876,1.55c4.511,11.222,12.621,32.023,20.273,38.151
			c12.784,10.232,24.868,12.24,48.083,13.658c15.439,0.94,27.439-0.385,35.848-4.119c12.306,6.402,22.937-1.082,16.59-8.12
			c0,0-1.441-1.681-3.886-4.396c5.59-13.122,9.277-39.952,10.341-48.535C617.224,722.507,618.429,709.187,617.981,705.388z
			 M599.793,774.615c-10.229-10.38-28.272-27.59-40.525-33.098c-1.477-0.662-3.417-1.385-5.773-2.157
			c19.396-1.179,39.394-2.534,50.758-3.32C604.642,750.865,602.429,768.18,599.793,774.615z M404.741,699.448
			c13.095-0.18,49.288,2.588,53.879,13.425c0.744,1.755,1.135,3.896,1.234,6.317c-32.587-5.669-68.441-11.039-100.427-14.727
			C372.771,699.924,394.896,699.587,404.741,699.448z M490.015,719.298c0.205-2.244,0.662-4.226,1.419-5.852
			c4.968-10.671,41.233-12.174,54.317-11.536c9.604,0.47,30.929,1.537,44.191,6.256
			C558.093,710.736,522.459,714.813,490.015,719.298z M393.603,736.819c-1.471,0.461-2.736,0.907-3.776,1.331
			c-12.476,5.093-31.184,21.744-41.75,31.754c-2.324-6.7-3.857-23.506-3.017-37.977
			C355.988,733.068,374.919,735.017,393.603,736.819z M446.03,764.722c-8.372,15.398-18.436,21.194-51.8,22.605
			c-16.401,0.695-26.622-1.041-33.304-4.016c1.95-1.354,3.907-3.043,5.82-5.121c5.482-5.954,12.173-22.562,20.875-26.338
			c4.557-1.975,34.606-4.472,67.007-6.658C452.143,752.252,449.055,759.155,446.03,764.722z M553.187,790.102
			c-33.298-2.575-43.148-8.72-50.98-24.399c-2.772-5.557-5.557-12.397-7.775-19.389c32.238,3.312,62.084,6.846,66.558,8.976
			c8.569,4.077,14.676,20.909,19.946,27.05c1.73,2.015,3.51,3.686,5.297,5.061C579.449,790.041,569.248,791.345,553.187,790.102z"/>
		<g>
			<path fill="#272626" d="M607.699,778.69c0,0-30.397-33.216-48.358-41.289c-21.819-9.803-144.714-32.35-224.688-39.634
				c-0.258,14.899,1.068,29.057,1.068,29.057s48.594,5.169,81.918,8.104c33.322,2.939,134.854,12.172,143.422,16.249
				c8.568,4.075,14.674,20.905,19.943,27.047C596.399,796.163,615.777,787.098,607.699,778.69z"/>
			<path fill="#272626" d="M340.128,773.609c0,0,31.537-32.132,49.771-39.572c22.147-9.038,145.754-27.279,225.931-31.771
				c-0.26,14.897-2.079,29.003-2.079,29.003s-48.747,3.468-82.15,5.24c-33.407,1.771-135.198,7.455-143.905,11.23
				c-8.702,3.773-15.393,20.38-20.876,26.336C350.81,791.467,331.762,781.729,340.128,773.609z"/>
			<g>
				<path opacity="0.8" fill="#3A3554" d="M599.328,771.65c-4.664,8.553-12.776,16.912-46.069,14.338
					c-33.295-2.575-43.149-8.723-50.977-24.401c-7.833-15.677-15.746-41.582-10.777-52.257
					c4.969-10.671,41.235-12.172,54.317-11.534c12.542,0.613,45.063,2.247,53.532,11.693
					C607.821,718.935,603.998,763.099,599.328,771.65z"/>
				<path opacity="0.02" fill="#FFFFFF" d="M597.166,711.451c-2.175-2.425-8.018-5.818-23.501-8.218
					c-10.713-1.658-21.951-2.207-27.987-2.501c-0.957-0.048-2.021-0.082-3.165-0.103c-7.419-0.129-18.907,0.323-28.903,1.978
					c-15.384,2.547-18.722,6.418-19.44,7.965c-3.083,6.623-0.181,22.039,5.092,36.497c0,0,24.601-9.521,47.825-15.354
					c23.225-5.832,53.266-11.431,53.266-11.431C599.621,716.061,598.539,712.987,597.166,711.451z"/>
				<path opacity="0.3" fill="#010101" d="M604.322,739.079c0.1-11.8-1.231-22.93-5.011-27.145
					c-8.469-9.446-40.99-11.08-53.532-11.694c-13.083-0.637-49.349,0.864-54.316,11.536c-0.879,1.887-1.356,4.249-1.503,6.951
					c-0.054-3.726,0.411-6.958,1.545-9.397c4.969-10.671,41.234-12.17,54.317-11.534c12.542,0.613,45.063,2.247,53.532,11.693
					C603.394,713.995,604.634,726.4,604.322,739.079z"/>
				<path opacity="0.1" fill="#FFFFFF" d="M599.328,771.65c-4.664,8.553-12.776,16.912-46.069,14.338
					c-33.299-2.575-43.149-8.723-50.98-24.4c-6.441-12.902-12.944-32.74-12.275-45.306c0.188,12.58,6.276,30.765,12.318,42.861
					c7.83,15.677,17.682,21.826,50.979,24.399c33.294,2.573,41.407-5.785,46.07-14.337c2.441-4.472,4.654-18.686,4.991-32.574
					C604.237,751.261,601.913,766.916,599.328,771.65z"/>
				<path fill="#1C1C1C" d="M615.829,702.267c-1.059-1.033-5.25-1.735-5.25-1.735c-6.074-1.063-31.646-7.589-65.685-8.184
					c-34.036-0.595-41.78,0.405-69.503-0.079c-27.724-0.483-35.426-1.753-69.464-2.347c-34.039-0.594-59.821,5.036-65.929,5.886
					c0,0-4.215,0.557-5.309,1.551c-1.092,0.992-0.262,15.665,0.802,26.8c0.892,9.347,4.463,41.687,11.271,50.671
					c6.811,8.985,22.13,12.988,45.381,12.441c23.249-0.544,35.394-2.015,48.515-11.181c8.433-5.892,17.962-27.616,22.562-37.225
					c4.602-9.612,7.532-11.524,11.559-11.454c4.025,0.071,6.887,2.084,11.151,11.851c4.264,9.764,13.03,31.808,21.249,37.989
					c12.792,9.618,24.88,11.512,48.094,12.867c23.219,1.358,38.67-2.107,45.788-10.85c7.117-8.742,11.818-40.938,13.035-50.248
					C615.544,717.93,616.887,703.296,615.829,702.267z M446.101,760.606c-8.37,15.396-18.432,21.196-51.798,22.608
					c-33.362,1.41-41.179-7.228-45.543-15.938c-4.369-8.71-6.648-52.979,2.146-62.125c8.795-9.146,41.352-9.643,53.907-9.817
					c13.095-0.182,49.288,2.585,53.88,13.422C463.286,719.599,454.472,745.214,446.101,760.606z M599.328,771.65
					c-4.664,8.553-12.776,16.912-46.069,14.338c-33.295-2.575-43.149-8.723-50.977-24.401
					c-7.833-15.677-15.746-41.582-10.777-52.257c4.969-10.671,41.235-12.172,54.317-11.534c12.542,0.613,45.063,2.247,53.532,11.693
					C607.821,718.935,603.998,763.099,599.328,771.65z"/>
				<path opacity="0.8" fill="#3A3554" d="M348.76,767.277c4.364,8.71,12.181,17.348,45.543,15.938
					c33.366-1.412,43.428-7.212,51.798-22.608c8.371-15.393,17.186-41.008,12.592-51.85c-4.592-10.837-40.785-13.604-53.88-13.422
					c-12.556,0.175-45.112,0.672-53.907,9.817C342.111,714.298,344.391,758.567,348.76,767.277z"/>
				<path opacity="0.02" fill="#FFFFFF" d="M456.681,721.171c0.577-4.686,0.421-8.633-0.695-11.266
					c-0.663-1.571-3.86-5.556-19.151-8.638c-9.929-2.003-21.396-2.855-28.812-2.985c-1.146-0.02-2.209-0.023-3.166-0.008
					c-6.047,0.083-17.297,0.24-28.061,1.523c-15.559,1.856-21.514,5.045-23.771,7.392c-3.216,3.347-5.206,14.528-5.188,29.183
					c0.005,3.841,0.143,7.524,0.375,10.92c0,0,29.081-9.57,53.227-15.386C425.579,726.093,456.681,721.171,456.681,721.171z"/>
				<path opacity="0.3" fill="#010101" d="M344.905,734.55c0.314-11.795,2.03-22.871,5.956-26.952
					c8.796-9.145,41.353-9.644,53.908-9.819c13.095-0.18,49.288,2.586,53.879,13.425c0.814,1.917,1.209,4.295,1.26,7.001
					c0.185-3.723-0.165-6.971-1.216-9.447c-4.592-10.837-40.785-13.602-53.88-13.422c-12.556,0.175-45.112,0.672-53.907,9.817
					C346.71,709.515,345.037,721.869,344.905,734.55z"/>
				<path opacity="0.1" fill="#FFFFFF" d="M348.76,767.277c4.364,8.71,12.181,17.348,45.543,15.938
					c33.366-1.412,43.428-7.212,51.798-22.608c6.891-12.668,14.079-32.269,13.851-44.849c-0.626,12.565-7.343,30.526-13.808,42.404
					c-8.371,15.395-18.434,21.195-51.799,22.606c-33.361,1.41-41.179-7.227-45.543-15.936c-2.285-4.555-3.996-18.838-3.852-32.729
					C344.564,746.729,346.342,762.456,348.76,767.277z"/>
				<path opacity="0.05" fill="#FFFFFF" d="M615.829,702.267c-1.059-1.033-5.25-1.735-5.25-1.735
					c-6.074-1.063-31.646-7.589-65.685-8.184c-34.039-0.595-41.78,0.405-69.503-0.079c-27.724-0.483-35.426-1.753-69.464-2.347
					c-34.039-0.594-59.821,5.036-65.929,5.886c0,0-4.215,0.557-5.309,1.551c-0.346,0.313-0.498,2.005-0.511,4.524
					c0.059-1.698,0.211-2.804,0.485-3.055c1.094-0.996,5.309-1.551,5.309-1.551c6.107-0.852,31.89-6.479,65.93-5.886
					c34.037,0.595,41.74,1.862,69.463,2.347c27.723,0.483,35.464-0.515,69.501,0.079c34.04,0.594,59.611,7.119,65.687,8.184
					c0,0,4.191,0.7,5.25,1.734c0.267,0.261,0.38,1.371,0.378,3.069C616.257,704.287,616.165,702.591,615.829,702.267z"/>
			</g>
		</g>
	</g>
</g>
<g id="Website_Mock">
	<rect x="296.246" y="113.851" fill="#C03A2B" width="436.668" height="254.065"/>
	<rect x="296.246" y="367.916" width="436.666" height="40.563"/>
	<polyline points="492.178,216.331 492.178,265.435 551.673,240.885 	"/>
	<rect x="351.313" y="381.08" fill="#ECF0F1" width="371.677" height="14.236"/>
	<rect x="313.12" y="377.233" fill="#FFFFFF" width="8.326" height="21.931"/>
	<rect x="325.851" y="377.233" fill="#FFFFFF" width="8.326" height="21.931"/>
	<rect x="52.867" y="117.872" fill="#35495E" width="95.995" height="65.443"/>
	<rect x="52.867" y="191.973" fill="#35495E" width="95.995" height="65.443"/>
	<rect x="52.867" y="266.772" fill="#35495E" width="95.995" height="65.443"/>
	<rect x="52.867" y="344.195" fill="#35495E" width="95.995" height="65.443"/>
	<rect x="158.246" y="119.216" fill="#7F8C8D" width="115" height="11.344"/>
	<rect x="158.246" y="139.249" fill="#7F8C8D" width="85" height="11.344"/>
	<rect x="158.246" y="191.973" fill="#7F8C8D" width="115" height="11.344"/>
	<rect x="158.246" y="213.976" fill="#7F8C8D" width="96" height="11.344"/>
	<rect x="158.246" y="232.689" fill="#7F8C8D" width="110" height="11.344"/>
	<rect x="155.746" y="267.936" fill="#7F8C8D" width="115" height="11.344"/>
	<rect x="155.746" y="288.15" fill="#7F8C8D" width="105.5" height="11.344"/>
	<rect x="155.746" y="344.195" fill="#7F8C8D" width="115" height="11.345"/>
	<rect x="155.746" y="364.522" fill="#7F8C8D" width="94.5" height="11.344"/>
	<rect x="155.746" y="384.665" fill="#7F8C8D" width="87.5" height="11.344"/>
	<rect x="33.242" y="439.802" fill="#ECF0F1" width="720" height="79.414"/>
	<rect x="33.242" y="30.002" fill="#CFCECE" width="720" height="60.318"/>
</g>
</svg>
